<svg xmlns="http://www.w3.org/2000/svg" viewBox="0 -0.5 18 18" shape-rendering="crispEdges">
  <path stroke="#000000" d="M6 0h6M4 1h2M12 1h2M3 2h1M14 2h1M2 3h1M15 3h1M1 4h1M16 4h1M1 5h1M16 5h1M0 6h1M5 6h2M11 6h2M17 6h1M0 7h1M5 7h2M11 7h2M17 7h1M0 8h1M17 8h1M0 9h1M17 9h1M0 10h1M17 10h1M0 11h1M4 11h1M13 11h1M17 11h1M1 12h1M5 12h1M12 12h1M16 12h1M1 13h1M6 13h6M16 13h1M2 14h1M15 14h1M3 15h1M14 15h1M4 16h2M12 16h2M6 17h6" />
  <path stroke="#ffef12" d="M6 1h6M4 2h10M3 3h12M2 4h14M2 5h14M1 6h4M7 6h4M13 6h4M1 7h4M7 7h4M13 7h4M1 8h16M1 9h16M1 10h16M1 11h3M5 11h8M14 11h3M2 12h3M6 12h6M13 12h3M2 13h4M12 13h4M3 14h12M4 15h10M6 16h6" />
</svg>
